<svg width="40" height="40" viewBox="0 0 40 40" fill="none" xmlns="http://www.w3.org/2000/svg">
<path d="M34.3183 0H5.68167C4.17534 0.00176437 2.73121 0.600933 1.66607 1.66607C0.600933 2.73121 0.00176437 4.17534 0 5.68167L0 40H40V5.68167C39.9982 4.17534 39.3991 2.73121 38.3339 1.66607C37.2688 0.600933 35.8247 0.00176437 34.3183 0V0ZM5.68167 5H34.3183C34.499 5.00044 34.6721 5.0724 34.7999 5.20014C34.9276 5.32788 34.9996 5.50101 35 5.68167V35L17.3567 17.3567C16.7316 16.7318 15.8839 16.3807 15 16.3807C14.1161 16.3807 13.2684 16.7318 12.6433 17.3567L5 25V5.68167C5.00044 5.50101 5.0724 5.32788 5.20014 5.20014C5.32788 5.0724 5.50101 5.00044 5.68167 5Z" fill="#00FEFE"/>
<path d="M25.5 18C27.9853 18 30 15.9853 30 13.5C30 11.0147 27.9853 9 25.5 9C23.0147 9 21 11.0147 21 13.5C21 15.9853 23.0147 18 25.5 18Z" fill="#00FEFE"/>
</svg>
