<svg width="16" height="16" viewBox="0 0 16 16" fill="none" xmlns="http://www.w3.org/2000/svg">
<path fill-rule="evenodd" clip-rule="evenodd" d="M0.707107 13.435C0.316583 13.8255 0.316583 14.4587 0.707107 14.8492C1.09763 15.2397 1.7308 15.2397 2.12132 14.8492L7.70709 9.26342L13.435 14.9913C13.8255 15.3819 14.4587 15.3819 14.8492 14.9913C15.2397 14.6008 15.2397 13.9676 14.8492 13.5771L9.12131 7.84921L14.8492 2.12127C15.2398 1.73075 15.2398 1.09759 14.8492 0.707061C14.4587 0.316537 13.8256 0.316537 13.435 0.707061L7.70709 6.435L2.12129 0.849197C1.73077 0.458672 1.0976 0.458672 0.707078 0.849197C0.316554 1.23972 0.316554 1.87289 0.707078 2.26341L6.29288 7.84921L0.707107 13.435Z" fill="white"/>
</svg>
