<svg width="44" height="40" viewBox="0 0 44 40" fill="none" xmlns="http://www.w3.org/2000/svg">
<path d="M0 14.5455V30.9091C0.00288701 33.3193 0.961604 35.6299 2.66585 37.3341C4.37011 39.0384 6.68074 39.9971 9.09091 40H34.5455C36.9556 39.9971 39.2663 39.0384 40.9705 37.3341C42.6748 35.6299 43.6335 33.3193 43.6364 30.9091V14.5455H0ZM25.4545 32.7273H10.9091C10.4269 32.7273 9.96442 32.5357 9.62344 32.1947C9.28247 31.8538 9.09091 31.3913 9.09091 30.9091C9.09091 30.4269 9.28247 29.9644 9.62344 29.6234C9.96442 29.2825 10.4269 29.0909 10.9091 29.0909H25.4545C25.9368 29.0909 26.3992 29.2825 26.7402 29.6234C27.0812 29.9644 27.2727 30.4269 27.2727 30.9091C27.2727 31.3913 27.0812 31.8538 26.7402 32.1947C26.3992 32.5357 25.9368 32.7273 25.4545 32.7273ZM32.7273 25.4545H10.9091C10.4269 25.4545 9.96442 25.263 9.62344 24.922C9.28247 24.581 9.09091 24.1186 9.09091 23.6364C9.09091 23.1542 9.28247 22.6917 9.62344 22.3507C9.96442 22.0097 10.4269 21.8182 10.9091 21.8182H32.7273C33.2095 21.8182 33.6719 22.0097 34.0129 22.3507C34.3539 22.6917 34.5455 23.1542 34.5455 23.6364C34.5455 24.1186 34.3539 24.581 34.0129 24.922C33.6719 25.263 33.2095 25.4545 32.7273 25.4545ZM43.6364 10.9091V9.09091C43.6335 6.68074 42.6748 4.37011 40.9705 2.66585C39.2663 0.961604 36.9556 0.00288701 34.5455 0H9.09091C6.68074 0.00288701 4.37011 0.961604 2.66585 2.66585C0.961604 4.37011 0.00288701 6.68074 0 9.09091L0 10.9091H43.6364ZM18.1818 3.63636C18.5414 3.63636 18.8929 3.743 19.1919 3.94278C19.4909 4.14257 19.724 4.42653 19.8616 4.75876C19.9992 5.09099 20.0352 5.45656 19.9651 5.80926C19.8949 6.16195 19.7217 6.48592 19.4675 6.74019C19.2132 6.99447 18.8892 7.16764 18.5365 7.23779C18.1838 7.30795 17.8183 7.27194 17.486 7.13433C17.1538 6.99671 16.8698 6.76367 16.6701 6.46467C16.4703 6.16567 16.3636 5.81415 16.3636 5.45455C16.3636 4.97233 16.5552 4.50987 16.8962 4.1689C17.2371 3.82792 17.6996 3.63636 18.1818 3.63636ZM12.7273 3.63636C13.0869 3.63636 13.4384 3.743 13.7374 3.94278C14.0364 4.14257 14.2694 4.42653 14.4071 4.75876C14.5447 5.09099 14.5807 5.45656 14.5105 5.80926C14.4404 6.16195 14.2672 6.48592 14.0129 6.74019C13.7586 6.99447 13.4347 7.16764 13.082 7.23779C12.7293 7.30795 12.3637 7.27194 12.0315 7.13433C11.6993 6.99671 11.4153 6.76367 11.2155 6.46467C11.0157 6.16567 10.9091 5.81415 10.9091 5.45455C10.9091 4.97233 11.1006 4.50987 11.4416 4.1689C11.7826 3.82792 12.2451 3.63636 12.7273 3.63636ZM7.27273 3.63636C7.63233 3.63636 7.98386 3.743 8.28286 3.94278C8.58185 4.14257 8.81489 4.42653 8.95251 4.75876C9.09012 5.09099 9.12613 5.45656 9.05597 5.80926C8.98582 6.16195 8.81265 6.48592 8.55838 6.74019C8.3041 6.99447 7.98013 7.16764 7.62744 7.23779C7.27474 7.30795 6.90917 7.27194 6.57694 7.13433C6.24471 6.99671 5.96075 6.76367 5.76096 6.46467C5.56118 6.16567 5.45455 5.81415 5.45455 5.45455C5.45455 4.97233 5.6461 4.50987 5.98708 4.1689C6.32805 3.82792 6.79052 3.63636 7.27273 3.63636Z" fill="#00FEFE"/>
</svg>
