<svg width="30" height="34" viewBox="0 0 30 34" fill="none" xmlns="http://www.w3.org/2000/svg">
<path d="M4 0C2.93913 0 1.92172 0.421427 1.17157 1.17157C0.421427 1.92172 0 2.93913 0 4V28C0 29.0609 0.421427 30.0783 1.17157 30.8284C1.92172 31.5786 2.93913 32 4 32H12.514C12.0046 31.3831 11.564 30.7124 11.2 30H4C3.46957 30 2.96086 29.7893 2.58579 29.4142C2.21071 29.0391 2 28.5304 2 28V4C2 3.46957 2.21071 2.96086 2.58579 2.58579C2.96086 2.21071 3.46957 2 4 2H20C20.5304 2 21.0391 2.21071 21.4142 2.58579C21.7893 2.96086 22 3.46957 22 4V14.044C22.686 14.106 23.356 14.232 24 14.414V4C24 2.93913 23.5786 1.92172 22.8284 1.17157C22.0783 0.421427 21.0609 0 20 0H4ZM8 16C8 16.5304 7.78929 17.0391 7.41421 17.4142C7.03914 17.7893 6.53043 18 6 18C5.46957 18 4.96086 17.7893 4.58579 17.4142C4.21071 17.0391 4 16.5304 4 16C4 15.4696 4.21071 14.9609 4.58579 14.5858C4.96086 14.2107 5.46957 14 6 14C6.53043 14 7.03914 14.2107 7.41421 14.5858C7.78929 14.9609 8 15.4696 8 16ZM21 34C23.3869 34 25.6761 33.0518 27.364 31.364C29.0518 29.6761 30 27.3869 30 25C30 22.6131 29.0518 20.3239 27.364 18.636C25.6761 16.9482 23.3869 16 21 16C18.6131 16 16.3239 16.9482 14.636 18.636C12.9482 20.3239 12 22.6131 12 25C12 27.3869 12.9482 29.6761 14.636 31.364C16.3239 33.0518 18.6131 34 21 34ZM21.708 29.708C21.5202 29.8958 21.2655 30.0013 21 30.0013C20.7344 30.0013 20.4798 29.8958 20.292 29.708C20.1042 29.5202 19.9987 29.2656 19.9987 29C19.9987 28.7344 20.1042 28.4798 20.292 28.292L22.586 26H17C16.7348 26 16.4804 25.8946 16.2929 25.7071C16.1054 25.5196 16 25.2652 16 25C16 24.7348 16.1054 24.4804 16.2929 24.2929C16.4804 24.1054 16.7348 24 17 24H22.586L20.292 21.708C20.1042 21.5202 19.9987 21.2656 19.9987 21C19.9987 20.7344 20.1042 20.4798 20.292 20.292C20.4798 20.1042 20.7344 19.9987 21 19.9987C21.2655 19.9987 21.5202 20.1042 21.708 20.292L25.708 24.292C25.894 24.4784 25.9989 24.7307 26 24.994V25.006C25.9984 25.2667 25.895 25.5164 25.712 25.702L25.706 25.708L21.706 29.708H21.708Z" fill="#FAFAFA"/>
</svg>
