<svg width="35" height="42" viewBox="0 0 35 42" fill="none" xmlns="http://www.w3.org/2000/svg">
<path d="M29.6275 14.742V12.25C29.6275 5.48453 24.1979 0 17.5 0C10.8022 0 5.37256 5.48453 5.37256 12.25V14.742C2.21946 16.132 0.179597 19.275 0.175049 22.75V33.25C0.180734 38.0801 4.05572 41.9943 8.83751 42H26.1625C30.9443 41.9943 34.8193 38.0801 34.8251 33.25V22.75C34.8206 19.275 32.7806 16.132 29.6275 14.742ZM19.2325 29.75C19.2325 30.7165 18.4569 31.5 17.5 31.5C16.5432 31.5 15.7676 30.7165 15.7676 29.75V26.25C15.7676 25.2835 16.5432 24.5 17.5 24.5C18.4569 24.5 19.2325 25.2835 19.2325 26.25V29.75ZM26.1626 14H8.83751V12.2501C8.83751 7.41759 12.7158 3.50003 17.5 3.50003C22.2843 3.50003 26.1626 7.41751 26.1626 12.2501V14Z" fill="#00FEFE"/>
</svg>
