<svg width="31" height="34" viewBox="0 0 31 34" fill="none" xmlns="http://www.w3.org/2000/svg">
<path d="M22.3721 1H6V33H30V8.58381L22.3721 1Z" fill="url(#paint0_linear_78_782)" stroke="white"/>
<path d="M22 1V9H30" stroke="white"/>
<rect x="0.5" y="15.5" width="20" height="9" rx="1.5" fill="white" stroke="white"/>
<path d="M5.36377 22V18.4209H6.52344C6.96289 18.4209 7.24935 18.4388 7.38281 18.4746C7.58789 18.5283 7.7596 18.6455 7.89795 18.8262C8.0363 19.0052 8.10547 19.2371 8.10547 19.522C8.10547 19.7417 8.06559 19.9264 7.98584 20.0762C7.90609 20.2259 7.80436 20.3439 7.68066 20.4302C7.55859 20.5148 7.43408 20.571 7.30713 20.5986C7.1346 20.6328 6.88477 20.6499 6.55762 20.6499H6.08643V22H5.36377ZM6.08643 19.0264V20.042H6.48193C6.76676 20.042 6.95719 20.0233 7.05322 19.9858C7.14925 19.9484 7.22412 19.8898 7.27783 19.8101C7.33317 19.7303 7.36084 19.6375 7.36084 19.5317C7.36084 19.4015 7.32259 19.2941 7.24609 19.2095C7.1696 19.1248 7.07275 19.0719 6.95557 19.0508C6.8693 19.0345 6.69596 19.0264 6.43555 19.0264H6.08643ZM8.69629 18.4209H10.0171C10.3149 18.4209 10.542 18.4437 10.6982 18.4893C10.9082 18.5511 11.0881 18.661 11.2378 18.8188C11.3875 18.9767 11.5015 19.1704 11.5796 19.3999C11.6577 19.6278 11.6968 19.9093 11.6968 20.2446C11.6968 20.5392 11.6602 20.7931 11.5869 21.0063C11.4974 21.2668 11.3696 21.4775 11.2036 21.6387C11.0783 21.7607 10.909 21.856 10.6958 21.9243C10.5363 21.9748 10.3231 22 10.0562 22H8.69629V18.4209ZM9.41895 19.0264V21.397H9.9585C10.1603 21.397 10.306 21.3856 10.3955 21.3628C10.5127 21.3335 10.6095 21.2839 10.686 21.2139C10.7642 21.1439 10.8276 21.0291 10.8765 20.8696C10.9253 20.7085 10.9497 20.4896 10.9497 20.2129C10.9497 19.9362 10.9253 19.7238 10.8765 19.5757C10.8276 19.4276 10.7593 19.312 10.6714 19.229C10.5835 19.146 10.472 19.0898 10.3369 19.0605C10.236 19.0378 10.0382 19.0264 9.74365 19.0264H9.41895ZM12.3169 22V18.4209H14.7705V19.0264H13.0396V19.8735H14.5337V20.479H13.0396V22H12.3169Z" fill="#141414"/>
<defs>
<linearGradient id="paint0_linear_78_782" x1="18" y1="1" x2="18" y2="33" gradientUnits="userSpaceOnUse">
<stop stop-color="#DB4A4A"/>
<stop offset="1" stop-color="#FFB9B9"/>
</linearGradient>
</defs>
</svg>
