<svg width="10" height="15" viewBox="0 0 10 15" fill="none" xmlns="http://www.w3.org/2000/svg">
<path d="M8.92053 7.07712L1.97483 0.956425C1.81418 0.814746 1.59973 0.736694 1.37107 0.736694C1.14241 0.736694 0.927964 0.814746 0.767318 0.956425L0.255815 1.40707C-0.0770235 1.70071 -0.0770235 2.17797 0.255815 2.47117L6.08829 7.61096L0.249343 12.7565C0.0886977 12.8981 0 13.087 0 13.2884C0 13.49 0.0886977 13.6789 0.249343 13.8207L0.760846 14.2712C0.921619 14.4129 1.13594 14.4909 1.3646 14.4909C1.59326 14.4909 1.80771 14.4129 1.96835 14.2712L8.92053 8.14491C9.08156 8.00279 9.17 7.81303 9.16949 7.6113C9.17 7.40879 9.08156 7.21914 8.92053 7.07712Z" fill="#606060"/>
</svg>
