<svg width="34" height="34" viewBox="0 0 34 34" fill="none" xmlns="http://www.w3.org/2000/svg">
<circle cx="17" cy="17" r="17" fill="#383B44"/>
<path d="M13.3536 9.64645C13.1583 9.45118 12.8417 9.45118 12.6464 9.64645L9.46447 12.8284C9.2692 13.0237 9.2692 13.3403 9.46447 13.5355C9.65973 13.7308 9.97631 13.7308 10.1716 13.5355L13 10.7071L15.8284 13.5355C16.0237 13.7308 16.3403 13.7308 16.5355 13.5355C16.7308 13.3403 16.7308 13.0237 16.5355 12.8284L13.3536 9.64645ZM13.5 23L13.5 10L12.5 10L12.5 23L13.5 23Z" fill="#76808F"/>
<path d="M21.3536 23.3536C21.1583 23.5488 20.8417 23.5488 20.6464 23.3536L17.4645 20.1716C17.2692 19.9763 17.2692 19.6597 17.4645 19.4645C17.6597 19.2692 17.9763 19.2692 18.1716 19.4645L21 22.2929L23.8284 19.4645C24.0237 19.2692 24.3403 19.2692 24.5355 19.4645C24.7308 19.6597 24.7308 19.9763 24.5355 20.1716L21.3536 23.3536ZM21.5 10L21.5 23L20.5 23L20.5 10L21.5 10Z" fill="#76808F"/>
</svg>
