<svg width="30" height="30" viewBox="0 0 30 30" fill="none" xmlns="http://www.w3.org/2000/svg">
<path d="M29.9999 15.0001C29.9999 23.2843 23.2843 29.9999 15.0001 29.9999C6.71564 29.9999 0 23.2843 0 15.0001C0 6.71564 6.71564 0 15.0001 0C23.2843 0 29.9999 6.71564 29.9999 15.0001Z" fill="#50AF95"/>
<path fill-rule="evenodd" clip-rule="evenodd" d="M16.8978 15.5255C16.7917 15.5332 16.2437 15.565 15.0214 15.565C14.0492 15.565 13.3589 15.5367 13.1167 15.5255C9.35956 15.3647 6.55515 14.7285 6.55515 13.9668C6.55515 13.2051 9.35956 12.5698 13.1167 12.4065V14.8919C13.3624 14.9091 14.066 14.9495 15.0382 14.9495C16.2049 14.9495 16.7891 14.9022 16.8942 14.8927V12.4082C20.6435 12.5707 23.4417 13.2069 23.4417 13.9668C23.4417 14.7268 20.6444 15.363 16.8942 15.5246L16.8978 15.5255ZM16.8978 12.1511V9.92707H22.1301V6.53552H7.88444V9.92707H13.1159V12.1503C8.86373 12.3403 5.66602 13.1596 5.66602 14.1414C5.66602 15.1231 8.86373 15.9416 13.1159 16.1324V23.2594H16.8969V16.1299C21.1393 15.9399 24.3317 15.1214 24.3317 14.1405C24.3317 13.1596 21.142 12.3411 16.8969 12.1503L16.8978 12.1511Z" fill="white"/>
</svg>
